# xmcd CD database file
# Copyright (C) 1993-1998 Ti Kan
#
# Track frame offsets:
#	188
#	12908
#	23883
#	34448
#	47320
#	59933
#	72408
#	76680
#	89253
#	101488
#	112820
#	124815
#	137455
#	141773
#	153478
#	165703
#	167785
#	183538
#	196205
#	212070
#	213598
#	227025
#	240353
#	253923
#	260813
#	273305
#	286240
#	301048
#	305748
#
# Disc length: 4237 seconds
#
# Revision: 1
# Processed by: cddbd v1.4b41PL1 Copyright (c) Steve Scherf et al.
# Submitted via: CDValet v3.31 - Copyright (c) 1997 Greg Leichner
#
DISCID=a0108b1d
DTITLE=Elmore James - Classic Early Recordings: Broomdusting In
DTITLE=Chicago [CD2]
DYEAR=1900
DGENRE=
TTITLE0=Early In The Morning
TTITLE1=Can't Stop Lovin'
TTITLE2=Hawaiian Boogie (version 2)
TTITLE3=Make A Little Love
TTITLE4=My Best Friend (Take 1)
TTITLE5=Make My Dreams Come True (Take 2)
TTITLE6=Make My Dreams Come True (Take 3)
TTITLE7=Make My Dreams Come True (Take 4)
TTITLE8=Make My Dreams Come True (Take 7)
TTITLE9=Strange Kinda Feeling (Take 1)
TTITLE10=Strange Kinda Feeling (Take 2)
TTITLE11=Strange Kinda Feeling (Take 3)
TTITLE12=Strange Kinda Feeling (Take 4)
TTITLE13=Strange Kinda Feeling (Take 5)
TTITLE14=Strange Kinda Feeling (Take 6)
TTITLE15=Dark And Dreary (Take 1)
TTITLE16=Dark And Dreary (Take 2)
TTITLE17=Dark And Dreary (Take 4)
TTITLE18=Quarter Past Nine
TTITLE19=Where Can My Baby Be (Take 1)
TTITLE20=Where Can My Baby Be (Take 8)
TTITLE21=Where Can My Baby Be (Take 9)
TTITLE22=Please Come Back To Me (Sho' Nuff I Do)
TTITLE23=Sho' Nuff I Do-Session Talk
TTITLE24=Sho' Nuff I Do (Alternate Take)
TTITLE25=Sho' Nuff I Do
TTITLE26=1839 Blues
TTITLE27=I Got A Strange Baby
TTITLE28=Canton Mississippi Breakdown
EXTD=
EXTT0=
EXTT1=
EXTT2=
EXTT3=
EXTT4=
EXTT5=
EXTT6=
EXTT7=
EXTT8=
EXTT9=
EXTT10=
EXTT11=
EXTT12=
EXTT13=
EXTT14=
EXTT15=
EXTT16=
EXTT17=
EXTT18=
EXTT19=
EXTT20=
EXTT21=
EXTT22=
EXTT23=
EXTT24=
EXTT25=
EXTT26=
EXTT27=
EXTT28=
PLAYORDER=
